HIERARCHY
ROOT hip
{
	OFFSET	0.00  0.00  0.00 
	CHANNELS 6 Xposition Yposition Zposition Xrotation Zrotation Yrotation
	JOINT abdomen
	{
		OFFSET	0.000000 3.402643 0.000000
		CHANNELS 3 Xrotation Zrotation Yrotation
		JOINT chest
		{
			OFFSET	0.000000 8.438564 -0.680529
			CHANNELS 3 Xrotation Zrotation Yrotation
			JOINT neck
			{
				OFFSET	0.000000 10.207942 -0.272212
				CHANNELS 3 Xrotation Zrotation Yrotation
				JOINT head
				{
					OFFSET	0.000000 3.130431 0.000000
					CHANNELS 3 Xrotation Zrotation Yrotation
					End Site
					{
						OFFSET 0.000000 3.130435 0.000000
					}
				}
			}
			JOINT lCollar
			{
				OFFSET	3.402647 6.669187 -0.816635
				CHANNELS 3 Yrotation Zrotation Xrotation
				JOINT lShldr
				{
					OFFSET	3.266541 0.000000 0.000000
					CHANNELS 3 Zrotation Yrotation Xrotation
					JOINT lForeArm
					{
						OFFSET	10.071835 0.000000 0.000000
						CHANNELS 3 Yrotation Zrotation Xrotation
						JOINT lHand
						{
							OFFSET	8.438563 0.000000 0.000000
							CHANNELS 3 Zrotation Yrotation Xrotation
							End Site
							{
								OFFSET 4.083176 0.000000 0.000000
							}
						}
					}
				}
			}
			JOINT rCollar
			{
				OFFSET	-3.538753 6.669187 -0.816635
				CHANNELS 3 Yrotation Zrotation Xrotation
				JOINT rShldr
				{
					OFFSET	-3.130435 0.000000 0.000000
					CHANNELS 3 Zrotation Yrotation Xrotation
					JOINT rForeArm
					{
						OFFSET	-10.207940 0.000000 0.000000
						CHANNELS 3 Yrotation Zrotation Xrotation
						JOINT rHand
						{
							OFFSET	-8.302459 0.000000 0.000000
							CHANNELS 3 Zrotation Yrotation Xrotation
							End Site
							{
								OFFSET -4.083176 0.000000 0.000000
							}
						}
					}
				}
			}
		}
	}
	JOINT lThigh
	{
		OFFSET	5.308129 -1.633274 1.361059
		CHANNELS 3 Xrotation Zrotation Yrotation
		JOINT lShin
		{
			OFFSET	-2.041588 -20.007561 0.000000
			CHANNELS 3 Xrotation Zrotation Yrotation
			JOINT lFoot
			{
				OFFSET	0.000000 -19.190928 -1.224953
				CHANNELS 3 Xrotation Yrotation Zrotation
				End Site
				{
					OFFSET 0.000000 -2.449905 4.627600
				}
			}
		}
	}
	JOINT rThigh
	{
		OFFSET	-5.308129 -1.633274 1.361059
		CHANNELS 3 Xrotation Zrotation Yrotation
		JOINT rShin
		{
			OFFSET	2.041588 -20.007561 0.000000
			CHANNELS 3 Xrotation Zrotation Yrotation
			JOINT rFoot
			{
				OFFSET	0.000000 -19.190928 -1.224953
				CHANNELS 3 Xrotation Yrotation Zrotation
				End Site
				{
					OFFSET 0.000000 -2.449905 4.627600
				}
			}
		}
	}
}
MOTION
Frames:     20
Frame Time: 0.033333
0.000000 43.729870 0.000000 0.000000 0.000000 0.000000 0.000000 0.000000 0.000000 0.000000 0.000000 0.000000 0.000000 0.000000 0.000000 0.000000 0.000000 0.000000 0.000000 0.000000 0.000000 0.000000 0.000000 0.000000 0.000000 0.000000 0.000000 0.000000 0.000000 0.000000 9.990230 0.000000 0.000000 0.000000 0.000000 0.000000 0.000000 0.000000 0.000000 0.000000 0.000000 0.000000 0.000000 0.000000 0.000000 0.009766 0.000000 0.000000 -0.097656 0.000000 0.000000 0.000000 -0.019531 0.000000 0.009766 0.019531 -0.009766 0.166016 0.009766 0.000000 
0.000000 43.729870 0.000000 0.000000 0.000000 0.000000 -0.001604 -0.026037 -0.029301 -0.006440 -0.030924 -0.021126 -0.098612 -0.011207 -0.001636 3.237000 -0.011176 -0.011803 2.447917 3.470183 -1.324890 -17.688835 0.000000 0.000000 0.000000 0.000000 0.000000 0.000000 0.000000 0.000000 14.777325 -1.212452 -0.961912 11.595134 0.963237 -0.131836 23.281166 -2.616750 18.449333 0.178778 -0.215423 0.000190 0.000000 0.000000 0.000000 0.009766 0.000000 0.000000 -0.097656 0.000000 0.000000 0.000000 -0.019531 0.000000 0.009766 0.019531 -0.009766 0.166016 0.009766 0.000000 
0.000000 43.729870 0.000000 0.000000 0.000000 0.000000 -0.003400 -0.055197 -0.062118 -0.013652 -0.065560 -0.044788 -0.209058 -0.023759 -0.003469 6.862440 -0.023693 -0.025023 5.189584 7.356789 -2.808767 -37.500332 0.000000 0.000000 0.000000 0.000000 0.000000 0.000000 0.000000 0.000000 20.138870 -2.570398 -2.039253 24.581684 2.042062 -0.279491 49.356071 -5.547510 39.112583 0.379010 -0.456697 0.000402 0.000000 0.000000 0.000000 0.009766 0.000000 0.000000 -0.097656 0.000000 0.000000 0.000000 -0.019531 0.000000 0.009766 0.019531 -0.009766 0.166016 0.009766 0.000000 
0.000000 43.729870 0.000000 0.000000 0.000000 0.000000 -0.005157 -0.083724 -0.094220 -0.020707 -0.099442 -0.067935 -0.317100 -0.036038 -0.005262 10.408978 -0.035938 -0.037955 7.871582 11.158808 -4.260349 -56.880661 0.000000 0.000000 0.000000 0.000000 0.000000 0.000000 0.000000 0.000000 25.383728 -3.898790 -3.093147 37.285599 3.097408 -0.423934 74.863495 -8.414486 59.326130 0.574884 -0.692721 0.000609 0.000000 0.000000 0.000000 0.009766 0.000000 0.000000 -0.097656 0.000000 0.000000 0.000000 -0.019531 0.000000 0.009766 0.019531 -0.009766 0.166016 0.009766 0.000000 
0.000000 43.729870 0.000000 0.000000 0.000000 0.000000 -0.006834 -0.110952 -0.124863 -0.027442 -0.131782 -0.090029 -0.420228 -0.047759 -0.006974 13.794209 -0.047626 -0.050298 10.431595 14.787899 -5.645910 -75.379509 0.000000 0.000000 0.000000 0.000000 0.000000 0.000000 0.000000 0.000000 30.390036 -5.166763 -4.099107 49.411705 4.104754 -0.561806 99.210770 -11.151064 78.620308 0.761849 -0.918009 0.000808 0.000000 0.000000 0.000000 0.009766 0.000000 0.000000 -0.097656 0.000000 0.000000 0.000000 -0.019531 0.000000 0.009766 0.019531 -0.009766 0.166016 0.009766 0.000000 
0.000000 43.729870 0.000000 0.000000 0.000000 0.000000 -0.008374 -0.135939 -0.152983 -0.033622 -0.161460 -0.110304 -0.514865 -0.058514 -0.008544 16.900709 -0.058352 -0.061626 12.780824 18.118181 -6.917387 -92.355209 0.000000 0.000000 0.000000 0.000000 0.000000 0.000000 0.000000 0.000000 34.984138 -6.330335 -5.022239 60.539379 5.029157 -0.688327 121.553345 -13.662319 96.325859 0.933420 -1.124747 0.000990 0.000000 0.000000 0.000000 0.009766 0.000000 0.000000 -0.097656 0.000000 0.000000 0.000000 -0.019531 0.000000 0.009766 0.019531 -0.009766 0.166016 0.009766 0.000000 
0.000000 43.729870 0.000000 0.000000 0.000000 0.000000 -0.009623 -0.156219 -0.175805 -0.038638 -0.185547 -0.126759 -0.591674 -0.067244 -0.009819 19.422001 -0.067057 -0.070819 14.687500 20.821100 -7.949340 -106.133003 0.000000 0.000000 0.000000 0.000000 0.000000 0.000000 0.000000 0.000000 38.712799 -7.274710 -5.771470 69.570801 5.779420 -0.791013 139.686996 -15.700500 110.695999 1.072670 -1.292540 0.001137 0.000000 0.000000 0.000000 0.009766 0.000000 0.000000 -0.097656 0.000000 0.000000 0.000000 -0.019531 0.000000 0.009766 0.019531 -0.009766 0.166016 0.009766 0.000000 
0.000000 43.729870 0.000000 0.000000 0.000000 0.000000 -0.019076 -0.306089 -0.217527 -0.072211 -0.527480 -0.192433 -0.615790 0.461293 -0.035123 18.566576 0.293284 -0.103981 14.687500 20.821100 -7.949340 -106.133003 0.000000 0.000000 0.000000 0.000000 0.000000 0.000000 0.000000 0.000000 38.355938 -6.959519 -5.818206 70.223717 5.999255 -0.824156 140.620682 -18.702404 111.120560 1.475359 -4.836802 -0.155574 0.000000 0.000000 0.000000 0.009766 0.000000 0.000000 -0.097656 0.000000 0.000000 0.000000 -0.019531 0.000000 0.009766 0.019531 -0.009766 0.166016 0.009766 0.000000 
0.000000 43.729870 0.000000 0.000000 0.000000 0.000000 -0.031684 -0.507926 -0.269930 -0.116791 -0.992560 -0.276431 -0.645416 1.156032 -0.066598 17.491493 0.881747 -0.143962 14.687500 20.821100 -7.949340 -106.133003 0.000000 0.000000 0.000000 0.000000 0.000000 0.000000 0.000000 0.000000 37.867771 -6.524312 -5.881500 71.113823 6.297832 -0.868709 141.901413 -22.803537 111.701904 1.967848 -9.861018 -0.375985 0.000000 0.000000 0.000000 0.009766 0.000000 0.000000 -0.097656 0.000000 0.000000 0.000000 -0.019531 0.000000 0.009766 0.019531 -0.009766 0.166016 0.009766 0.000000 
0.000000 43.729870 0.000000 0.000000 0.000000 0.000000 -0.045539 -0.730455 -0.326346 -0.165713 -1.506962 -0.367445 -0.677056 1.915870 -0.100365 16.333815 1.567554 -0.186363 14.687500 20.821100 -7.949340 -106.133003 0.000000 0.000000 0.000000 0.000000 0.000000 0.000000 0.000000 0.000000 37.326851 -6.040641 -5.951410 72.099052 6.627922 -0.917801 143.321808 -27.346027 112.346283 2.492947 -15.490346 -0.622349 0.000000 0.000000 0.000000 0.009766 0.000000 0.000000 -0.097656 0.000000 0.000000 0.000000 -0.019531 0.000000 0.009766 0.019531 -0.009766 0.166016 0.009766 0.000000 
0.000000 43.729870 0.000000 0.000000 0.000000 0.000000 -0.058865 -0.943306 -0.382567 -0.212886 -1.996262 -0.457153 -0.709020 2.652842 -0.134217 15.180586 2.162012 -0.229710 14.687500 20.821100 -7.949340 -106.133003 0.000000 0.000000 0.000000 0.000000 0.000000 0.000000 0.000000 0.000000 36.813965 -5.584400 -6.018070 73.035011 6.942157 -0.964807 144.666550 -31.656206 112.956940 3.024926 -20.725204 -0.852419 0.000000 0.000000 0.000000 0.009766 0.000000 0.000000 -0.097656 0.000000 0.000000 0.000000 -0.019531 0.000000 0.009766 0.019531 -0.009766 0.166016 0.009766 0.000000 
0.000000 43.729870 0.000000 0.000000 0.000000 0.000000 -0.069888 -1.116112 -0.434384 -0.252220 -2.386034 -0.537234 -0.739622 3.278985 -0.165943 14.118855 2.476425 -0.272532 14.687500 20.821100 -7.949340 -106.133003 0.000000 0.000000 0.000000 0.000000 0.000000 0.000000 0.000000 0.000000 36.409893 -5.231480 -6.071613 73.777290 7.193172 -1.003101 145.720337 -35.060387 113.437103 3.538059 -24.566004 -1.023944 0.000000 0.000000 0.000000 0.009766 0.000000 0.000000 -0.097656 0.000000 0.000000 0.000000 -0.019531 0.000000 0.009766 0.019531 -0.009766 0.166016 0.009766 0.000000 
0.000000 43.729870 0.000000 0.000000 0.000000 0.000000 -0.076829 -1.218503 -0.477589 -0.277624 -2.601855 -0.599366 -0.767172 3.706336 -0.193336 13.235674 2.322099 -0.313355 14.687500 20.821100 -7.949340 -106.133003 0.000000 0.000000 0.000000 0.000000 0.000000 0.000000 0.000000 0.000000 36.195442 -5.057775 -6.102174 74.181511 7.333604 -1.026061 146.267914 -36.884907 113.690033 4.006616 -26.013161 -1.094677 0.000000 0.000000 0.000000 0.009766 0.000000 0.000000 -0.097656 0.000000 0.000000 0.000000 -0.019531 0.000000 0.009766 0.019531 -0.009766 0.166016 0.009766 0.000000 
0.000000 43.729870 0.000000 0.000000 0.000000 0.000000 -0.077914 -1.220110 -0.507973 -0.283007 -2.569300 -0.635229 -0.789983 3.846930 -0.214185 12.618100 1.510340 -0.350707 14.687500 20.821100 -7.949340 -106.133003 0.000000 0.000000 0.000000 0.000000 0.000000 0.000000 0.000000 0.000000 36.251400 -5.139180 -6.099890 74.103302 7.316090 -1.027060 146.093994 -36.456100 113.619003 4.404870 -24.067101 -1.022370 0.000000 0.000000 0.000000 0.009766 0.000000 0.000000 -0.097656 0.000000 0.000000 0.000000 -0.019531 0.000000 0.009766 0.019531 -0.009766 0.166016 0.009766 0.000000 
0.000000 43.729870 0.000000 0.000000 0.000000 0.000000 -0.072050 -1.104307 -0.522368 -0.264705 -2.248477 -0.639219 -0.806814 3.649744 -0.226959 12.325151 -0.050922 -0.383283 14.687500 20.821100 -7.949340 -106.133003 0.000000 0.000000 0.000000 0.000000 0.000000 0.000000 0.000000 0.000000 36.621868 -5.516836 -6.059313 73.463074 7.114817 -1.002416 145.081955 -33.406418 113.171394 4.713638 -18.199724 -0.784446 0.000000 0.000000 0.000000 0.009766 0.000000 0.000000 -0.097656 0.000000 0.000000 0.000000 -0.019531 0.000000 0.009766 0.019531 -0.009766 0.166016 0.009766 0.000000 
0.000000 43.729870 0.000000 0.000000 0.000000 0.000000 -0.060883 -0.909434 -0.521770 -0.228763 -1.737627 -0.616608 -0.818214 3.211506 -0.232832 12.303694 -2.067252 -0.410450 14.687500 20.821100 -7.949340 -106.133003 0.000000 0.000000 0.000000 0.000000 0.000000 0.000000 0.000000 0.000000 37.204121 -6.092861 -5.992659 72.440460 6.790172 -0.960209 143.509445 -28.592772 112.470963 4.939913 -9.768870 -0.437019 0.000000 0.000000 0.000000 0.009766 0.000000 0.000000 -0.097656 0.000000 0.000000 0.000000 -0.019531 0.000000 0.009766 0.019531 -0.009766 0.166016 0.009766 0.000000 
0.000000 43.729870 0.000000 0.000000 0.000000 0.000000 -0.046742 -0.687571 -0.508214 -0.183651 -1.169522 -0.575387 -0.825181 2.665882 -0.233653 12.472552 -4.147592 -0.431740 14.687500 20.821100 -7.949340 -106.133003 0.000000 0.000000 0.000000 0.000000 0.000000 0.000000 0.000000 0.000000 37.858723 -6.734621 -5.916557 71.279877 6.424091 -0.911459 141.752670 -23.178179 111.685547 5.097231 -0.603858 -0.055875 0.000000 0.000000 0.000000 0.009766 0.000000 0.000000 -0.097656 0.000000 0.000000 0.000000 -0.019531 0.000000 0.009766 0.019531 -0.009766 0.166016 0.009766 0.000000 
0.000000 43.729870 0.000000 0.000000 0.000000 0.000000 -0.031955 -0.490800 -0.483736 -0.137842 -0.676934 -0.523545 -0.828710 2.146541 -0.231274 12.750555 -5.900884 -0.446688 14.687500 20.821100 -7.949340 -106.133003 0.000000 0.000000 0.000000 0.000000 0.000000 0.000000 0.000000 0.000000 38.446239 -7.309478 -5.847639 70.225769 6.098514 -0.867186 140.187866 -18.325668 110.983009 5.199127 7.465986 0.283198 0.000000 0.000000 0.000000 0.009766 0.000000 0.000000 -0.097656 0.000000 0.000000 0.000000 -0.019531 0.000000 0.009766 0.019531 -0.009766 0.166016 0.009766 0.000000 
0.000000 43.729870 0.000000 0.000000 0.000000 0.000000 -0.018854 -0.371202 -0.450371 -0.099805 -0.392635 -0.469074 -0.829801 1.787148 -0.227546 13.056529 -6.936070 -0.454828 14.687500 20.821100 -7.949340 -106.133003 0.000000 0.000000 0.000000 0.000000 0.000000 0.000000 0.000000 0.000000 38.827240 -7.684800 -5.802537 69.522568 5.895378 -0.838412 139.191238 -15.198267 110.531219 5.259138 12.611345 0.504416 0.000000 0.000000 0.000000 0.009766 0.000000 0.000000 -0.097656 0.000000 0.000000 0.000000 -0.019531 0.000000 0.009766 0.019531 -0.009766 0.166016 0.009766 0.000000 
0.000000 43.729870 0.000000 0.000000 0.000000 0.000000 -0.009766 -0.380859 -0.410157 -0.078012 -0.449399 -0.419962 -0.829448 1.721370 -0.224317 13.309300 -6.862090 -0.455694 14.687500 20.821100 -7.949340 -106.133003 0.000000 0.000000 0.000000 0.000000 0.000000 0.000000 0.000000 0.000000 38.862301 -7.727950 -5.797880 69.414703 5.896620 -0.836155 139.139008 -14.959000 110.498001 5.290800 13.002900 0.531991 0.000000 0.000000 0.000000 0.009766 0.000000 0.000000 -0.097656 0.000000 0.000000 0.000000 -0.019531 0.000000 0.009766 0.019531 -0.009766 0.166016 0.009766 0.000000 
